<?xml version="1.0" encoding="UTF-8"?>
<!DOCTYPE svg PUBLIC "-//W3C//DTD SVG 1.1//EN" "http://www.w3.org/Graphics/SVG/1.1/DTD/svg11.dtd">
<!-- Creator: CorelDRAW 2018 (64 Bit) -->
<svg xmlns="http://www.w3.org/2000/svg" xml:space="preserve" width="64.4228mm" height="24.9787mm" version="1.1" style="shape-rendering:geometricPrecision; text-rendering:geometricPrecision; image-rendering:optimizeQuality; fill-rule:evenodd; clip-rule:evenodd"
viewBox="0 0 3675.86 1425.24"
 xmlns:xlink="http://www.w3.org/1999/xlink">
 <defs>
  <style type="text/css">
   <![CDATA[
    .fil0 {fill:#29355B}
   ]]>
  </style>
 </defs>
 <g id="Camada_x0020_1">
  <metadata id="CorelCorpID_0Corel-Layer"/>
  <path class="fil0" d="M1926.67 1323.45c-6.46,-37.48 -2.88,-115.17 -2.16,-156.5 0.51,-29.85 1.14,-49.58 -2.82,-79.54 -22.91,-3.78 -53.11,-2.66 -76.92,-2.88 -1.44,-36.27 -5.95,-28.61 21.69,-28.78 56.58,-0.34 113.21,0.1 169.79,0 0.02,37.11 7.68,28.8 -28.92,29.05 -18.1,0.13 -30.57,-0.25 -48.52,3.7 -2.07,30.29 -3.78,47.23 -3.15,78.4 0.72,35.57 5.4,126.74 -3.22,155.94 -2.31,7.78 -5.6,8.44 -14.73,8.31 -9.38,-0.14 -8.39,-0.15 -11.05,-7.7zm185.64 -193.27c25.87,0 45.82,8.36 59.97,25.08 14.82,19.41 29.19,63.31 18.28,85.11 -25.87,2.89 -116.71,-4.23 -128.92,7.67 -16.47,16.03 9.91,77.17 83.48,56.77 10.86,-3.01 20.77,-6.56 31.87,-9.24 17.05,39.7 -62.88,44.36 -88.61,38.5 -98.82,-22.52 -86.39,-198.96 16.33,-203.56l7.59 -0.34zm-4.99 26.75c-37.36,4.45 -62.98,49.51 -41.59,55.35 18.81,5.13 72.38,2.76 93.49,1.07 5.4,-33.7 -17.53,-57.44 -51.9,-56.41zm269.02 -10.61c0.07,43.35 4.58,16.61 -37.14,11.13 -106.04,-13.92 -110.49,182.64 14.04,147.31 17.15,-4.87 25.28,-11.22 21.68,11.1 -3.74,23.14 -58.42,22.5 -76.45,18.3 -119.98,-27.92 -82.37,-245.09 69.71,-197.84 8.34,2.59 7.08,0.76 8.17,10zm197.48 9.15c19.06,31.55 14.62,87.52 14.6,125.04 -0.01,18.3 -0.97,31.22 -3.84,49.23 -10.84,2.52 -14.07,2.77 -24.84,-0.26 -8.6,-44.77 2.79,-111.53 -9.1,-144.39 -16.99,-46.94 -93.07,-37.35 -95.2,35.46 -1.13,38.97 3.14,69.41 -3.28,109.11 -10.74,2.64 -14.16,2.74 -24.88,-0.13 -7.01,-38.79 -3.94,-107.48 -3.69,-149.46 0.09,-15.13 0.26,-30.14 0.18,-45.28 40.24,-0.02 31.43,-7.93 31.61,25.9 0.13,24.54 5.85,-30.11 65.39,-30.51 23.26,-0.16 39.05,6.88 53.05,25.29zm233.92 6.97c44.95,63.97 18.76,174.96 -78.11,174.42 -120.37,-0.68 -124.43,-170.15 -33.23,-200.92 39.6,-13.36 83.35,-6.21 111.34,26.5zm-25.29 123.74c30.78,-50.45 11.79,-146.09 -67.35,-127.53 -76.02,17.82 -64.02,172.2 33.93,149.84 15.26,-3.48 24.08,-10.13 33.41,-22.31zm96.34 -246.25l31.67 0c0,80.28 1.27,161.63 0.84,241.65 -0.1,18.12 -1.14,29.48 -5.36,47.05 -9.68,3.54 -12.9,3.5 -22.63,0.14 -8.94,-36.34 -4.52,-112.66 -4.52,-153.9 0,-44.98 0,-89.96 0,-134.93zm276.32 200.93c-6.15,68.36 -54.59,108.45 -122.45,93.38 -98.96,-21.99 -96.01,-183.2 5.19,-201.98 77.82,-14.44 119.16,33.66 117.26,108.6zm-45.55 45.33c30.79,-50.42 11.75,-146.1 -67.28,-127.53 -76.3,17.92 -63.58,172.04 33.82,149.83 15.29,-3.48 24.11,-10.12 33.46,-22.3zm160.8 139.06c-24.42,0 -45.76,-4.61 -64.05,-13.89 -0.01,-52.9 -7.71,-24.19 45.2,-14.77 57.78,10.29 88.78,-17.16 91.45,-74.16 3.02,-64.62 -4.38,32.67 -89.41,12.1 -97.4,-23.56 -77.29,-225.24 44.46,-203 49.5,9.04 44.83,60.66 45.24,3.54 10.46,-0.18 20.39,-0.17 30.85,0.1 0.25,44.95 4.5,189.13 -4.54,223.4 -13.37,50.73 -50.72,65.36 -99.2,66.68zm53.38 -254.85c-37.38,-30.74 -85.86,-9.34 -96.25,39.78 -25.33,119.93 113.57,137.61 115.65,26.97 0.52,-27.94 1.46,-46.09 -19.41,-66.74zm130.95 -85.76c-5.6,0 -10.47,-1.91 -14.42,-5.8 -4.02,-3.81 -5.99,-8.69 -5.99,-14.61 0,-5.92 1.97,-10.86 5.99,-14.74 3.95,-3.95 8.82,-5.92 14.42,-5.92 5.79,0 10.73,1.97 14.81,5.92 4.02,3.88 6.05,8.82 6.05,14.74 0,5.67 -2.04,10.47 -6.05,14.42 -4.08,4.02 -9.02,5.99 -14.81,5.99zm-9.72 50.26c32.85,-0.29 24.79,-6.5 25.12,22.58 0.67,57.46 0.92,116.75 -0.82,174.13 -39.19,1.88 -29.09,3.95 -30.59,-28.91 -2.28,-49.74 2.78,-102.93 -0.01,-152.7l-0.46 -8.1 1.62 -5.59 5.12 -1.4zm230.69 76.18c0.33,40.42 0.39,79.96 -1.07,120.38 -46.26,2.76 -24.9,1.63 -30.67,-28.32 -0.76,-3.96 -12.1,14.23 -20.52,20.55 -45.1,33.88 -122.35,2.56 -100.72,-65.19 15.22,-47.67 76.84,-41.48 119.23,-53.76 2.72,-68.12 -64.35,-51.28 -102.43,-25.53 -0.76,-10.68 -0.62,-19.59 -0.41,-30.24 46.43,-28.67 125.57,-32.71 135.26,37.69 1.14,8.24 1.2,16.14 1.32,24.42zm-82.49 28.13c-25.19,4.96 -45.48,13.4 -40.85,43.73 7.4,48.48 100.9,31.07 91.56,-38.63 -2.01,-15.06 -3.26,-10.96 -23.79,-8.77 -9.04,0.96 -17.94,2.23 -26.92,3.67z"/>
  <path class="fil0" d="M604.57 333.81l2.21 2.04 0 6.66c0,58.81 -33.29,105.05 -99.68,138.71 -21.08,9.99 -43.47,15.16 -67.32,15.16l-266.5 0 0 41.06 260.03 0c79.89,0 135.56,39.02 167,117.07 4.25,10.54 6.46,24.97 6.46,43.27l0 49.93c0,58.82 -33.29,105.05 -99.68,138.71 -21.08,10.17 -43.47,15.17 -67.32,15.17l-272.98 0c-70.46,0 -123.17,-36.06 -158.3,-108.38 -5.73,-17.01 -8.51,-34.39 -8.51,-51.96l2.04 -2.23 431.28 0 0 -39.02 -266.5 0c-64.36,0 -114.85,-31.8 -151.65,-95.24 -10.17,-19.23 -15.17,-42.35 -15.17,-69.35l0 -39.02c0,-73.05 41.8,-124.28 125.58,-153.87 10.91,-4.44 26.81,-6.66 47.71,-6.66l4.25 0 427.03 -2.04zm152.21 -212.49c29.22,0 53.82,18.12 73.79,54.19l4.25 26.08 0 10.72c0,33.29 -23.86,57.89 -71.57,73.79l-19.42 0c-40.13,0 -67.51,-23.11 -82.3,-69.35l0 -15.16c0,-40.13 25.15,-66.95 75.83,-80.26l19.42 0zm-88.77 206.02c68.61,0 121.32,36.06 158.13,108.19 5.73,20.34 8.69,38.28 8.69,54.19l0 407.61 -4.25 4.25 -6.66 0c-55.11,0 -102.08,-28.11 -140.73,-84.51 -14.43,-23.86 -21.64,-51.23 -21.64,-82.3l0 -403.17c0,-2.96 2.04,-4.26 6.48,-4.26zm226.37 2.03l429.06 0c79.16,0 134.82,39.03 167,117.07 4.25,15.17 6.47,30.34 6.47,45.5l0 405.39 -4.44 4.25 -6.47 0c-59.92,0 -109.12,-31.81 -147.4,-95.43 -9.99,-21.27 -15.17,-43.64 -15.17,-67.13l0 -247.08 -43.27 0 0 405.39 -4.44 4.25 -6.48 0c-59.92,0 -109.11,-31.81 -147.39,-95.43 -9.99,-21.27 -15.17,-43.64 -15.17,-67.13l0 -247.08 -43.27 0 0 405.39 -4.25 4.25 -6.66 0c-59.92,0 -108.93,-31.81 -147.21,-95.43 -10.17,-21.27 -15.17,-43.64 -15.17,-67.13l0 -405.21 4.26 -4.44zm926.01 -8.13l288.13 0 4.43 4.43 0 301.27c0,67.13 -26.81,130.01 -80.26,188.45 -60.28,56.4 -123.17,84.51 -188.45,84.51l-136.67 0 0 79.16c0,72.86 -39.76,125.01 -119.1,156.09l-32.55 4.25 -6.47 0 -2.23 -2.21 -2.21 0 2.21 -443.12 0 -99.68c0,-87.11 41.99,-162.19 125.76,-225.44 50.49,-31.81 99.69,-47.71 147.4,-47.71zm154.77 170.61c-8.72,-30.43 -50.72,-23.92 -76.8,-22.94 -76.45,2.85 -142.42,0.06 -187.8,73.94 -23.94,38.97 -23.25,104.59 -22.5,149.32 0.83,50.03 3.28,47.43 53.18,49.26 120.81,3.85 226.79,0.34 235.11,-147.78 1.44,-25.66 3.94,-77.42 -1.19,-101.81zm192.55 -491.85c68.61,0 119.84,38.28 153.87,114.85 5.73,17.01 8.7,34.4 8.7,51.97l0 730.52 -4.44 4.25 -6.48 0c-62.14,0 -111.15,-36.06 -147.4,-108.38 -7.21,-19.79 -10.73,-40.87 -10.73,-62.88l0 -726.07c0,-2.77 2.22,-4.26 6.48,-4.26zm488.05 329.38l288.33 0 4.25 4.44 0 158.13 -244.86 247.08 212.5 0 2.04 2.23 2.21 0c-34.77,68.61 -88.95,117.07 -162.56,145.17 -32.18,10.17 -60.29,15.17 -84.52,15.17l-292.58 0 -4.25 -4.25 0 -288.33c0,-79.52 33.85,-150.35 101.72,-212.31 56.41,-44.94 115.59,-67.32 177.73,-67.32zm-144.07 286.11c0,23.11 6.47,44.01 19.42,62.88l184.2 -186.42 -45.5 0c-67.88,0 -111.15,15.9 -130.01,47.72 -18.68,24.23 -28.11,49.57 -28.11,75.82zm488.24 -286.11c74.35,0 130.01,36.81 166.82,110.6 7.21,21.64 10.91,48.45 10.91,80.08l0 13.13 177.73 0 0 -13.13c0,-85.07 33.85,-142.96 101.72,-173.29 26.08,-11.65 51.42,-17.39 75.83,-17.39l4.44 4.44 0 166.82c0,39.39 -19.61,77.68 -58.63,114.85 39.02,36.06 58.63,76.56 58.63,121.32l0 160.53 -4.44 4.25 -2.04 0c-73.79,0 -128.72,-36.8 -164.78,-110.59 -7.21,-22.75 -10.73,-49.38 -10.73,-80.09l0 -13.13 -177.73 0 0 8.69c0,92.85 -35.51,152.77 -106.34,179.95 -20.89,10.17 -44.02,15.17 -69.35,15.17l-2.04 0 -4.43 -4.25 0 -160.53c0,-48.64 20.34,-88.41 60.66,-119.1 -40.32,-36.44 -60.66,-77.68 -60.66,-123.54l0 -160.35 4.43 -4.44z"/>
 </g>
</svg>
